PathFileType	4	(X/Y/Z)	/Users/niels/Desktop/University/Third Semester/Perception and Action/Exam/Gymnastics Motion Tracking/Code for Gym Tracking/Analyzed Data/kraft_good_id2_1_Sports2D/kraft_good_id2_1_Sports2D_px_person00.trc
DataRate	CameraRate	NumFrames	NumMarkers	Units	OrigDataRate	OrigDataStartFrame	OrigNumFrames
143.44186046511626	143.44186046511626	8	22	m	143.44186046511626	161	258
Frame#	Time	Hip			RHip			RKnee			RAnkle			RBigToe			RSmallToe			RHeel			LHip			LKnee			LAnkle			LBigToe			LSmallToe			LHeel			Neck			Head			Nose			RShoulder			RElbow			RWrist			LShoulder			LElbow			LWrist		
		X1	Y1	Z1	X2	Y2	Z2	X3	Y3	Z3	X4	Y4	Z4	X5	Y5	Z5	X6	Y6	Z6	X7	Y7	Z7	X8	Y8	Z8	X9	Y9	Z9	X10	Y10	Z10	X11	Y11	Z11	X12	Y12	Z12	X13	Y13	Z13	X14	Y14	Z14	X15	Y15	Z15	X16	Y16	Z16	X17	Y17	Z17	X18	Y18	Z18	X19	Y19	Z19	X20	Y20	Z20	X21	Y21	Z21	X22	Y22	Z22
161	1.1224059662775616	0.7552033917986081	-0.3284507307753634	0.0	0.7503895212976565	-0.327205620171765	0.0	0.7948652610462208	-0.25462795698195684	0.0	0.8313448719892622	-0.20251667343237992	0.0	0.8385949927790525	-0.17654970445430423	0.0	0.8402797396996291	-0.17324005324280067	0.0	0.8394997198815777	-0.20902486965139377	0.0	0.765099879165161	-0.330163315710276	0.0	0.830552745356224	-0.28614453573931115	0.0	0.8989838441757593	-0.2542334508844629	0.0	0.9244926782182344	-0.2251102063181035	0.0	0.9222060138189125	-0.23127584744451316	0.0	0.9101362140358836	-0.25232508127544884	0.0	0.7288466835347273	-0.42943806391566186	0.0	0.757663024803421	-0.4753942949826082	0.0	0.7405832283452549	-0.45567347281235826	0.0	0.7206052966358312	-0.42381641942098375	0.0	0.7069486915668276	-0.47870199117992296	0.0	0.7077473252617877	-0.5337333644793933	0.0	0.7400405105423632	-0.4276910368276877	0.0	0.73271771317107	-0.47458842901047676	0.0	0.7210608693223164	-0.5270958911490863	0.0
162	1.1293774319066148	0.7598695749519302	-0.32760853445231214	0.0	0.7556500838957853	-0.32634475535167173	0.0	0.8049486169862436	-0.2565949338803637	0.0	0.8460019943391256	-0.20714708197195253	0.0	0.8552410479370817	-0.18181522146233975	0.0	0.8569155386001907	-0.178627451111784	0.0	0.8548314991496534	-0.21363513881374038	0.0	0.7696617474273244	-0.32975985462519797	0.0	0.8367878868427021	-0.2888891309895977	0.0	0.9062584377017037	-0.2598360576137933	0.0	0.9322756739347369	-0.23175368879966018	0.0	0.930013572811144	-0.23778714353016692	0.0	0.9178450737771288	-0.25796202403685625	0.0	0.7300522008197871	-0.42694428376426635	0.0	0.7570147913972737	-0.47376144719325747	0.0	0.7410541876925008	-0.45295506912128036	0.0	0.7224220324407595	-0.42117964075163833	0.0	0.7078731265692891	-0.47608063664539374	0.0	0.7074983170934406	-0.5310297948661913	0.0	0.7408231374014288	-0.4248121031060736	0.0	0.7325386876673526	-0.4723005070164912	0.0	0.7206266069764532	-0.5246849518690292	0.0
163	1.136348897535668	0.7645743778889937	-0.3268353535011702	0.0	0.7609865714424553	-0.32557120110131266	0.0	0.8148293762553183	-0.2589694442922395	0.0	0.8601888464691089	-0.21248035276713173	0.0	0.8713662533950027	-0.1878618369283372	0.0	0.8729990919752025	-0.1848618211689973	0.0	0.8696335049200078	-0.21892188782075933	0.0	0.7742533657909737	-0.3294024276148605	0.0	0.8429985389855671	-0.2916912381560113	0.0	0.9133802804727371	-0.2655523731404631	0.0	0.9398707745078162	-0.23857300062126052	0.0	0.9376420761429727	-0.24442686782945452	0.0	0.9253741959310875	-0.26374245949244846	0.0	0.7312895106598936	-0.4243537733932289	0.0	0.7562803875007377	-0.4720274939618534	0.0	0.7414904586502631	-0.450107662463142	0.0	0.724295152570457	-0.41845559458979553	0.0	0.7088034046242432	-0.4732896952055465	0.0	0.7072019196262005	-0.528091147124142	0.0	0.741600597638025	-0.42182872299795243	0.0	0.7322825479183814	-0.469861952733123	0.0	0.7201014088167668	-0.5220504304193485	0.0
164	1.1433203631647213	0.7693240913903154	-0.3261436932015942	0.0	0.7663983921501317	-0.32489801223490306	0.0	0.8244889455142864	-0.2617294794867534	0.0	0.8738681533522394	-0.2184712459172564	0.0	0.8869188005714814	-0.1946266573086133	0.0	0.8884809407636299	-0.1918786106562064	0.0	0.8838647638065024	-0.22484596277931884	0.0	0.7788834501747126	-0.32909921901897315	0.0	0.8491863287420903	-0.2945556676802333	0.0	0.9203511321385675	-0.2713810748258944	0.0	0.947286459128003	-0.24557509948367073	0.0	0.9451029337126056	-0.25119939278079045	0.0	0.9327202165737253	-0.2696671597030234	0.0	0.7325764962163515	-0.42168122941260583	0.0	0.755476121147146	-0.4701944261217549	0.0	0.7419049202244256	-0.44713880685620017	0.0	0.7262341724362678	-0.4156579636728891	0.0	0.709741706727314	-0.47033278304597936	0.0	0.7068587328827514	-0.5249146607524648	0.0	0.742400610228995	-0.4187578216000358	0.0	0.7319776347537386	-0.46727439548063954	0.0	0.7194915105147056	-0.5191844900326308	0.0
165	1.1502918287937745	0.7741251057596433	-0.3255457377078982	0.0	0.7718848717232284	-0.32433798901102934	0.0	0.833912257670673	-0.26485310422169767	0.0	0.8870093977821742	-0.2250722207471043	0.0	0.9018561143852488	-0.20204915863924533	0.0	0.9033215053546589	-0.19961396210260146	0.0	0.8974914364173691	-0.23136665718317942	0.0	0.783560460661814	-0.3288591014292561	0.0	0.8553512671651003	-0.2974875068748823	0.0	0.9271713498764316	-0.27732199646219896	0.0	0.9545299285309611	-0.252767965222053	0.0	0.9524063109096422	-0.2581106845509943	0.0	0.9398793498055569	-0.27573668479604446	0.0	0.7339309470015793	-0.41894102848838083	0.0	0.7546190460628935	-0.46826139290728563	0.0	0.7423116014353961	-0.44405527793166905	0.0	0.7282480145189186	-0.41280124868090595	0.0	0.7106914036331264	-0.4672149992477074	0.0	0.7064714826136883	-0.5214985736711262	0.0	0.7432492928552956	-0.41561711863675543	0.0	0.7316516877175707	-0.4645404154325941	0.0	0.7188044769587938	-0.5160806508209319	0.0
166	1.1572632944228276	0.7789836243916739	-0.32505356409684216	0.0	0.7774450875006943	-0.3239037840121962	0.0	0.8430885349095184	-0.26831915976272797	0.0	0.8995896276205274	-0.23223466630738887	0.0	0.9161456762738845	-0.21007320421342396	0.0	0.9174917734550566	-0.20800633365391966	0.0	0.9104876016893269	-0.23844228444309176	0.0	0.7882920962273445	-0.3286921138729033	0.0	0.8614922398204813	-0.3004922876869982	0.0	0.933840398407423	-0.28337620922359763	0.0	0.9616068884827342	-0.26015950654611264	0.0	0.9595607794822251	-0.2651678190769712	0.0	0.9468481152908867	-0.2819515645256751	0.0	0.735370043105038	-0.4161468906627605	0.0	0.7537272436255189	-0.4662242252698217	0.0	0.742725915540715	-0.4408635887667827	0.0	0.7303447431363326	-0.4099003078426389	0.0	0.7116572144241854	-0.46394299046513154	0.0	0.7060452812169354	-0.5178422094560092	0.0	0.7441706968367264	-0.4124247659135194	0.0	0.7313313253249549	-0.46166347248018164	0.0	0.7180498245310083	-0.5127338825722512	0.0
167	1.1642347600518808	0.7839052483606895	-0.3246794495250699	0.0	0.7830774630659019	-0.32360795527928343	0.0	0.8520110387469023	-0.27210754039501894	0.0	0.9115928602230858	-0.2399098735067673	0.0	0.9297640221784452	-0.21864616986771926	0.0	0.930972138759898	-0.21699614670802028	0.0	0.9228349073370348	-0.24603067762212977	0.0	0.7930848052674774	-0.32860952542387195	0.0	0.8676071346286746	-0.3035761330480241	0.0	0.9403572247505064	-0.2895457291422485	0.0	0.9685212125891324	-0.2677544056412017	0.0	0.9665726622907241	-0.2723765976920032	0.0	0.9536234178310462	-0.28831241420652587	0.0	0.7369097083652526	-0.4133117834001578	0.0	0.7528199971831551	-0.46407569836871926	0.0	0.7431645179324914	-0.43757092426340893	0.0	0.7325317298336974	-0.40696980896160156	0.0	0.7126453514731553	-0.46052491656494626	0.0	0.7055877644861429	-0.5139463992247897	0.0	0.7451866118258592	-0.4091989900491191	0.0	0.7310420988825456	-0.45864791287088563	0.0	0.7172395885602568	-0.5091411026642111	0.0
168	1.171206225680934	0.7888948157351177	-0.32443606565244754	0.0	0.7887798762226849	-0.32346287689954945	0.0	0.8606766314743127	-0.27619948027660735	0.0	0.9230094451727393	-0.24805000067192207	0.0	0.9426960475932535	-0.2277184103705294	0.0	0.9437514254104078	-0.2265260069827267	0.0	0.9345222741632262	-0.2540899806318679	0.0	0.7979436217119896	-0.3286235240938406	0.0	0.8736931081682004	-0.30674590974945165	0.0	0.9467204947696826	-0.2958333872910391	0.0	0.9752746885049857	-0.27555091514573593	0.0	0.9734454508439215	-0.27973981117172253	0.0	0.9602024632112314	-0.29482006702932834	0.0	0.7385640930852537	-0.4104477666138176	0.0	0.7519175458295293	-0.4618062677896941	0.0	0.7436450419207333	-0.4341856181560393	0.0	0.7348160856622871	-0.4040234311093622	0.0	0.7136637847112121	-0.45696963965084464	0.0	0.7051091879502106	-0.5098135648484069	0.0	0.7463164707940092	-0.40595763511150657	0.0	0.730808419734181	-0.4554984169080491	0.0	0.7163884802146481	-0.5053017676548492	0.0
